<?xml version="1.0" encoding="utf-8"?>
<!-- Generator: Adobe Illustrator 25.1.0, SVG Export Plug-In . SVG Version: 6.00 Build 0)  -->
<svg version="1.1" id="Layer_1" xmlns="http://www.w3.org/2000/svg" xmlns:xlink="http://www.w3.org/1999/xlink" x="0px" y="0px"
	 viewBox="0 0 1920 1080" style="enable-background:new 0 0 1920 1080;" xml:space="preserve">
<g>

<style>

    </style>

	<path d="M178.6,32.3C211.2,25.7,257.8,22,302.2,22c68.8,0,113.3,12.6,144.4,40.7c25.2,22.2,39.2,56.3,39.2,94.8
		c0,65.9-41.5,109.6-94,127.3v2.2c38.5,13.3,61.4,48.9,73.3,100.7c16.3,69.6,28.1,117.7,38.5,137H437c-8.1-14.1-19.2-57-33.3-119.2
		c-14.8-68.8-41.5-94.8-99.9-97H243v216.2h-64.4V32.3z M243,259.6h65.9c68.8,0,112.5-37.8,112.5-94.8c0-64.4-46.6-92.5-114.7-93.3
		c-31.1,0-53.3,3-63.7,5.9V259.6z"/>
</g>
<g>
	<path  d="M178.4,524h64.4v333.9c0,132.5-65.1,173.2-151,173.2c-23.7,0-52.6-5.2-68.8-11.8l9.6-52.6c13.3,5.2,32.6,9.6,54,9.6
		c57.7,0,91.8-25.9,91.8-123.6V524z"/>
</g>
<g>
</g>
<g>
</g>
<g>
</g>
<g>
</g>
<g>
</g>
<g>
</g>
<g>
</g>
<g>
</g>
<g>
</g>
<g>
</g>
<g>
</g>
<g>
</g>
<g>
</g>
<g>
</g>
<g>
</g>
</svg>
