<svg xmlns="http://www.w3.org/2000/svg" viewBox="0 0 446.87 473"><defs><style>.cls-1{fill:#fff;}.cls-1,.cls-2{stroke:#000;stroke-miterlimit:10;}</style></defs><g id="Layer_2" data-name="Layer 2"><g id="Layer_2-2" data-name="Layer 2"><path class="cls-1" d="M23.78.5h177v26c16.83-2.22,85.81-9.36,152,36,57.83,39.62,78.24,95.12,84,113a269.68,269.68,0,0,1-21,196l21,4-62,97h-351l33-72a202.71,202.71,0,0,1-56-151,261.94,261.94,0,0,1,68-165v-20Z"/></g><g id="Layer_1-2" data-name="Layer 1"><polygon class="cls-2" points="59.78 15.5 181.78 15.5 181.78 390.5 400.78 390.5 352.78 452.5 56.78 452.5 90.78 392.5 91.78 59.5 59.78 15.5"/><polygon class="cls-1" points="82.78 26.5 169.78 26.5 169.78 402.5 374.78 402.5 343.78 444.5 76.78 444.5 104.78 393.5 104.78 56.5 82.78 26.5"/><path class="cls-1" d="M71.78,382.5c-13.78-18.1-51.6-72.38-48-140,1.43-26.82,9.09-50.33,11-56a221.11,221.11,0,0,1,39-70q.51,13.5,1,27a192.46,192.46,0,0,0-33,96c-3.57,58.1,20.74,100.46,30,115Z"/><path class="cls-1" d="M200.78,48.5v21a211.56,211.56,0,0,1,140,38,159.19,159.19,0,0,1,66,116c1.77,20.69,1.42,37.77,0,49a196,196,0,0,1-14,52l-28,47h26a236.79,236.79,0,0,0,35-80,213,213,0,0,0-5-98,189.56,189.56,0,0,0-76-110c-19.41-13.47-35.72-20.86-41-23a188.32,188.32,0,0,0-33-10,156.79,156.79,0,0,0-70-2Z"/><path class="cls-1" d="M200.78,88.5v283l137,4a160.3,160.3,0,0,0,50-112,174.27,174.27,0,0,0-30-112c-3.45-5.35-16.13-22.12-38-38a172.24,172.24,0,0,0-41-22,143.32,143.32,0,0,0-78-3Z"/></g></g></svg>